<svg xmlns="http://www.w3.org/2000/svg" width="500" height="750">
<rect x="0" y="0" width="50" height="50" fill="rgb(4, 13, 61)" stroke-width="4" stroke="white" />
<rect x="50" y="0" width="50" height="50" fill="rgb(19, 25, 9)" stroke-width="4" stroke="white" />
<rect x="100" y="0" width="50" height="50" fill="rgb(48, 1, 36)" stroke-width="4" stroke="white" />
<rect x="150" y="0" width="50" height="50" fill="rgb(33, 23, 40)" stroke-width="4" stroke="white" />
<rect x="200" y="0" width="50" height="50" fill="rgb(51, 7, 73)" stroke-width="4" stroke="white" />
<rect x="250" y="0" width="50" height="50" fill="rgb(67, 8, 21)" stroke-width="4" stroke="white" />
<rect x="300" y="0" width="50" height="50" fill="rgb(53, 32, 26)" stroke-width="4" stroke="white" />
<rect x="350" y="0" width="50" height="50" fill="rgb(3, 30, 102)" stroke-width="4" stroke="white" />
<rect x="400" y="0" width="50" height="50" fill="rgb(60, 18, 112)" stroke-width="4" stroke="white" />
<rect x="450" y="0" width="50" height="50" fill="rgb(0, 8, 163)" stroke-width="4" stroke="white" />
<rect x="0" y="50" width="50" height="50" fill="rgb(81, 40, 61)" stroke-width="4" stroke="white" />
<rect x="50" y="50" width="50" height="50" fill="rgb(36, 64, 18)" stroke-width="4" stroke="white" />
<rect x="100" y="50" width="50" height="50" fill="rgb(91, 26, 77)" stroke-width="4" stroke="white" />
<rect x="150" y="50" width="50" height="50" fill="rgb(102, 25, 3)" stroke-width="4" stroke="white" />
<rect x="200" y="50" width="50" height="50" fill="rgb(107, 3, 54)" stroke-width="4" stroke="white" />
<rect x="250" y="50" width="50" height="50" fill="rgb(67, 20, 146)" stroke-width="4" stroke="white" />
<rect x="300" y="50" width="50" height="50" fill="rgb(65, 49, 93)" stroke-width="4" stroke="white" />
<rect x="350" y="50" width="50" height="50" fill="rgb(12, 65, 84)" stroke-width="4" stroke="white" />
<rect x="400" y="50" width="50" height="50" fill="rgb(74, 56, 16)" stroke-width="4" stroke="white" />
<rect x="450" y="50" width="50" height="50" fill="rgb(105, 16, 103)" stroke-width="4" stroke="white" />
<rect x="0" y="100" width="50" height="50" fill="rgb(11, 50, 160)" stroke-width="4" stroke="white" />
<rect x="50" y="100" width="50" height="50" fill="rgb(21, 68, 133)" stroke-width="4" stroke="white" />
<rect x="100" y="100" width="50" height="50" fill="rgb(141, 20, 15)" stroke-width="4" stroke="white" />
<rect x="150" y="100" width="50" height="50" fill="rgb(91, 72, 62)" stroke-width="4" stroke="white" />
<rect x="200" y="100" width="50" height="50" fill="rgb(69, 65, 153)" stroke-width="4" stroke="white" />
<rect x="250" y="100" width="50" height="50" fill="rgb(61, 85, 71)" stroke-width="4" stroke="white" />
<rect x="300" y="100" width="50" height="50" fill="rgb(83, 85, 24)" stroke-width="4" stroke="white" />
<rect x="350" y="100" width="50" height="50" fill="rgb(61, 27, 236)" stroke-width="4" stroke="white" />
<rect x="400" y="100" width="50" height="50" fill="rgb(9, 103, 19)" stroke-width="4" stroke="white" />
<rect x="450" y="100" width="50" height="50" fill="rgb(113, 78, 11)" stroke-width="4" stroke="white" />
<rect x="0" y="150" width="50" height="50" fill="rgb(131, 67, 69)" stroke-width="4" stroke="white" />
<rect x="50" y="150" width="50" height="50" fill="rgb(49, 104, 54)" stroke-width="4" stroke="white" />
<rect x="100" y="150" width="50" height="50" fill="rgb(159, 32, 96)" stroke-width="4" stroke="white" />
<rect x="150" y="150" width="50" height="50" fill="rgb(101, 46, 211)" stroke-width="4" stroke="white" />
<rect x="200" y="150" width="50" height="50" fill="rgb(156, 3, 156)" stroke-width="4" stroke="white" />
<rect x="250" y="150" width="50" height="50" fill="rgb(141, 74, 2)" stroke-width="4" stroke="white" />
<rect x="300" y="150" width="50" height="50" fill="rgb(177, 0, 74)" stroke-width="4" stroke="white" />
<rect x="350" y="150" width="50" height="50" fill="rgb(94, 92, 111)" stroke-width="4" stroke="white" />
<rect x="400" y="150" width="50" height="50" fill="rgb(140, 68, 102)" stroke-width="4" stroke="white" />
<rect x="450" y="150" width="50" height="50" fill="rgb(76, 95, 143)" stroke-width="4" stroke="white" />
<rect x="0" y="200" width="50" height="50" fill="rgb(165, 56, 60)" stroke-width="4" stroke="white" />
<rect x="50" y="200" width="50" height="50" fill="rgb(185, 20, 27)" stroke-width="4" stroke="white" />
<rect x="100" y="200" width="50" height="50" fill="rgb(130, 72, 160)" stroke-width="4" stroke="white" />
<rect x="150" y="200" width="50" height="50" fill="rgb(127, 93, 64)" stroke-width="4" stroke="white" />
<rect x="200" y="200" width="50" height="50" fill="rgb(44, 79, 247)" stroke-width="4" stroke="white" />
<rect x="250" y="200" width="50" height="50" fill="rgb(53, 100, 194)" stroke-width="4" stroke="white" />
<rect x="300" y="200" width="50" height="50" fill="rgb(63, 93, 214)" stroke-width="4" stroke="white" />
<rect x="350" y="200" width="50" height="50" fill="rgb(21, 116, 151)" stroke-width="4" stroke="white" />
<rect x="400" y="200" width="50" height="50" fill="rgb(130, 72, 199)" stroke-width="4" stroke="white" />
<rect x="450" y="200" width="50" height="50" fill="rgb(11, 126, 95)" stroke-width="4" stroke="white" />
<rect x="0" y="250" width="50" height="50" fill="rgb(113, 97, 169)" stroke-width="4" stroke="white" />
<rect x="50" y="250" width="50" height="50" fill="rgb(167, 68, 139)" stroke-width="4" stroke="white" />
<rect x="100" y="250" width="50" height="50" fill="rgb(160, 90, 56)" stroke-width="4" stroke="white" />
<rect x="150" y="250" width="50" height="50" fill="rgb(69, 124, 118)" stroke-width="4" stroke="white" />
<rect x="200" y="250" width="50" height="50" fill="rgb(181, 74, 101)" stroke-width="4" stroke="white" />
<rect x="250" y="250" width="50" height="50" fill="rgb(135, 113, 22)" stroke-width="4" stroke="white" />
<rect x="300" y="250" width="50" height="50" fill="rgb(115, 126, 21)" stroke-width="4" stroke="white" />
<rect x="350" y="250" width="50" height="50" fill="rgb(152, 97, 149)" stroke-width="4" stroke="white" />
<rect x="400" y="250" width="50" height="50" fill="rgb(196, 76, 47)" stroke-width="4" stroke="white" />
<rect x="450" y="250" width="50" height="50" fill="rgb(141, 113, 114)" stroke-width="4" stroke="white" />
<rect x="0" y="300" width="50" height="50" fill="rgb(175, 64, 222)" stroke-width="4" stroke="white" />
<rect x="50" y="300" width="50" height="50" fill="rgb(157, 120, 65)" stroke-width="4" stroke="white" />
<rect x="100" y="300" width="50" height="50" fill="rgb(133, 132, 81)" stroke-width="4" stroke="white" />
<rect x="150" y="300" width="50" height="50" fill="rgb(200, 94, 23)" stroke-width="4" stroke="white" />
<rect x="200" y="300" width="50" height="50" fill="rgb(239, 23, 64)" stroke-width="4" stroke="white" />
<rect x="250" y="300" width="50" height="50" fill="rgb(222, 68, 77)" stroke-width="4" stroke="white" />
<rect x="300" y="300" width="50" height="50" fill="rgb(87, 131, 201)" stroke-width="4" stroke="white" />
<rect x="350" y="300" width="50" height="50" fill="rgb(205, 78, 177)" stroke-width="4" stroke="white" />
<rect x="400" y="300" width="50" height="50" fill="rgb(121, 137, 162)" stroke-width="4" stroke="white" />
<rect x="450" y="300" width="50" height="50" fill="rgb(238, 65, 44)" stroke-width="4" stroke="white" />
<rect x="0" y="350" width="50" height="50" fill="rgb(113, 149, 79)" stroke-width="4" stroke="white" />
<rect x="50" y="350" width="50" height="50" fill="rgb(132, 141, 127)" stroke-width="4" stroke="white" />
<rect x="100" y="350" width="50" height="50" fill="rgb(90, 159, 3)" stroke-width="4" stroke="white" />
<rect x="150" y="350" width="50" height="50" fill="rgb(252, 34, 102)" stroke-width="4" stroke="white" />
<rect x="200" y="350" width="50" height="50" fill="rgb(233, 76, 119)" stroke-width="4" stroke="white" />
<rect x="250" y="350" width="50" height="50" fill="rgb(52, 168, 65)" stroke-width="4" stroke="white" />
<rect x="300" y="350" width="50" height="50" fill="rgb(106, 156, 123)" stroke-width="4" stroke="white" />
<rect x="350" y="350" width="50" height="50" fill="rgb(253, 68, 6)" stroke-width="4" stroke="white" />
<rect x="400" y="350" width="50" height="50" fill="rgb(243, 68, 156)" stroke-width="4" stroke="white" />
<rect x="450" y="350" width="50" height="50" fill="rgb(188, 128, 146)" stroke-width="4" stroke="white" />
<rect x="0" y="400" width="50" height="50" fill="rgb(166, 123, 234)" stroke-width="4" stroke="white" />
<rect x="50" y="400" width="50" height="50" fill="rgb(63, 169, 168)" stroke-width="4" stroke="white" />
<rect x="100" y="400" width="50" height="50" fill="rgb(213, 125, 98)" stroke-width="4" stroke="white" />
<rect x="150" y="400" width="50" height="50" fill="rgb(25, 179, 120)" stroke-width="4" stroke="white" />
<rect x="200" y="400" width="50" height="50" fill="rgb(192, 130, 203)" stroke-width="4" stroke="white" />
<rect x="250" y="400" width="50" height="50" fill="rgb(147, 146, 230)" stroke-width="4" stroke="white" />
<rect x="300" y="400" width="50" height="50" fill="rgb(196, 146, 57)" stroke-width="4" stroke="white" />
<rect x="350" y="400" width="50" height="50" fill="rgb(217, 136, 2)" stroke-width="4" stroke="white" />
<rect x="400" y="400" width="50" height="50" fill="rgb(218, 104, 238)" stroke-width="4" stroke="white" />
<rect x="450" y="400" width="50" height="50" fill="rgb(212, 126, 174)" stroke-width="4" stroke="white" />
<rect x="0" y="450" width="50" height="50" fill="rgb(37, 168, 237)" stroke-width="4" stroke="white" />
<rect x="50" y="450" width="50" height="50" fill="rgb(175, 144, 194)" stroke-width="4" stroke="white" />
<rect x="100" y="450" width="50" height="50" fill="rgb(139, 173, 64)" stroke-width="4" stroke="white" />
<rect x="150" y="450" width="50" height="50" fill="rgb(253, 109, 49)" stroke-width="4" stroke="white" />
<rect x="200" y="450" width="50" height="50" fill="rgb(106, 180, 101)" stroke-width="4" stroke="white" />
<rect x="250" y="450" width="50" height="50" fill="rgb(202, 151, 116)" stroke-width="4" stroke="white" />
<rect x="300" y="450" width="50" height="50" fill="rgb(253, 120, 122)" stroke-width="4" stroke="white" />
<rect x="350" y="450" width="50" height="50" fill="rgb(191, 166, 99)" stroke-width="4" stroke="white" />
<rect x="400" y="450" width="50" height="50" fill="rgb(177, 171, 136)" stroke-width="4" stroke="white" />
<rect x="450" y="450" width="50" height="50" fill="rgb(250, 121, 184)" stroke-width="4" stroke="white" />
<rect x="0" y="500" width="50" height="50" fill="rgb(173, 179, 44)" stroke-width="4" stroke="white" />
<rect x="50" y="500" width="50" height="50" fill="rgb(21, 191, 220)" stroke-width="4" stroke="white" />
<rect x="100" y="500" width="50" height="50" fill="rgb(192, 165, 163)" stroke-width="4" stroke="white" />
<rect x="150" y="500" width="50" height="50" fill="rgb(111, 193, 146)" stroke-width="4" stroke="white" />
<rect x="200" y="500" width="50" height="50" fill="rgb(200, 173, 5)" stroke-width="4" stroke="white" />
<rect x="250" y="500" width="50" height="50" fill="rgb(252, 143, 70)" stroke-width="4" stroke="white" />
<rect x="300" y="500" width="50" height="50" fill="rgb(239, 134, 223)" stroke-width="4" stroke="white" />
<rect x="350" y="500" width="50" height="50" fill="rgb(238, 158, 101)" stroke-width="4" stroke="white" />
<rect x="400" y="500" width="50" height="50" fill="rgb(137, 206, 34)" stroke-width="4" stroke="white" />
<rect x="450" y="500" width="50" height="50" fill="rgb(250, 151, 152)" stroke-width="4" stroke="white" />
<rect x="0" y="550" width="50" height="50" fill="rgb(142, 193, 205)" stroke-width="4" stroke="white" />
<rect x="50" y="550" width="50" height="50" fill="rgb(76, 219, 21)" stroke-width="4" stroke="white" />
<rect x="100" y="550" width="50" height="50" fill="rgb(186, 192, 101)" stroke-width="4" stroke="white" />
<rect x="150" y="550" width="50" height="50" fill="rgb(162, 199, 166)" stroke-width="4" stroke="white" />
<rect x="200" y="550" width="50" height="50" fill="rgb(200, 182, 209)" stroke-width="4" stroke="white" />
<rect x="250" y="550" width="50" height="50" fill="rgb(115, 221, 111)" stroke-width="4" stroke="white" />
<rect x="300" y="550" width="50" height="50" fill="rgb(170, 208, 142)" stroke-width="4" stroke="white" />
<rect x="350" y="550" width="50" height="50" fill="rgb(251, 182, 28)" stroke-width="4" stroke="white" />
<rect x="400" y="550" width="50" height="50" fill="rgb(253, 181, 81)" stroke-width="4" stroke="white" />
<rect x="450" y="550" width="50" height="50" fill="rgb(21, 236, 121)" stroke-width="4" stroke="white" />
<rect x="0" y="600" width="50" height="50" fill="rgb(100, 232, 88)" stroke-width="4" stroke="white" />
<rect x="50" y="600" width="50" height="50" fill="rgb(164, 218, 120)" stroke-width="4" stroke="white" />
<rect x="100" y="600" width="50" height="50" fill="rgb(159, 206, 251)" stroke-width="4" stroke="white" />
<rect x="150" y="600" width="50" height="50" fill="rgb(224, 185, 250)" stroke-width="4" stroke="white" />
<rect x="200" y="600" width="50" height="50" fill="rgb(247, 185, 175)" stroke-width="4" stroke="white" />
<rect x="250" y="600" width="50" height="50" fill="rgb(254, 192, 227)" stroke-width="4" stroke="white" />
<rect x="300" y="600" width="50" height="50" fill="rgb(131, 230, 250)" stroke-width="4" stroke="white" />
<rect x="350" y="600" width="50" height="50" fill="rgb(213, 214, 201)" stroke-width="4" stroke="white" />
<rect x="400" y="600" width="50" height="50" fill="rgb(252, 205, 146)" stroke-width="4" stroke="white" />
<rect x="450" y="600" width="50" height="50" fill="rgb(249, 212, 99)" stroke-width="4" stroke="white" />
<rect x="0" y="650" width="50" height="50" fill="rgb(120, 243, 207)" stroke-width="4" stroke="white" />
<rect x="50" y="650" width="50" height="50" fill="rgb(66, 254, 169)" stroke-width="4" stroke="white" />
<rect x="100" y="650" width="50" height="50" fill="rgb(151, 245, 176)" stroke-width="4" stroke="white" />
<rect x="150" y="650" width="50" height="50" fill="rgb(181, 247, 27)" stroke-width="4" stroke="white" />
<rect x="200" y="650" width="50" height="50" fill="rgb(240, 228, 69)" stroke-width="4" stroke="white" />
<rect x="250" y="650" width="50" height="50" fill="rgb(91, 250, 250)" stroke-width="4" stroke="white" />
<rect x="300" y="650" width="50" height="50" fill="rgb(208, 228, 239)" stroke-width="4" stroke="white" />
<rect x="350" y="650" width="50" height="50" fill="rgb(176, 241, 231)" stroke-width="4" stroke="white" />
<rect x="400" y="650" width="50" height="50" fill="rgb(213, 241, 98)" stroke-width="4" stroke="white" />
<rect x="450" y="650" width="50" height="50" fill="rgb(170, 254, 100)" stroke-width="4" stroke="white" />
<rect x="0" y="700" width="50" height="50" fill="rgb(239, 232, 154)" stroke-width="4" stroke="white" />
<rect x="50" y="700" width="50" height="50" fill="rgb(246, 228, 186)" stroke-width="4" stroke="white" />
<rect x="100" y="700" width="50" height="50" fill="rgb(252, 223, 239)" stroke-width="4" stroke="white" />
<rect x="150" y="700" width="50" height="50" fill="rgb(209, 252, 209)" stroke-width="4" stroke="white" />
<rect x="200" y="700" width="50" height="50" fill="rgb(235, 252, 61)" stroke-width="4" stroke="white" />
</svg>
