<svg xmlns="http://www.w3.org/2000/svg" width="500" height="750">
<rect x="0" y="0" width="50" height="50" fill="rgb(2, 7, 40)" stroke-width="4" stroke="white" />
<rect x="50" y="0" width="50" height="50" fill="rgb(29, 13, 0)" stroke-width="4" stroke="white" />
<rect x="100" y="0" width="50" height="50" fill="rgb(38, 2, 55)" stroke-width="4" stroke="white" />
<rect x="150" y="0" width="50" height="50" fill="rgb(53, 24, 36)" stroke-width="4" stroke="white" />
<rect x="200" y="0" width="50" height="50" fill="rgb(13, 22, 100)" stroke-width="4" stroke="white" />
<rect x="250" y="0" width="50" height="50" fill="rgb(16, 33, 84)" stroke-width="4" stroke="white" />
<rect x="300" y="0" width="50" height="50" fill="rgb(32, 44, 43)" stroke-width="4" stroke="white" />
<rect x="350" y="0" width="50" height="50" fill="rgb(84, 20, 59)" stroke-width="4" stroke="white" />
<rect x="400" y="0" width="50" height="50" fill="rgb(53, 52, 16)" stroke-width="4" stroke="white" />
<rect x="450" y="0" width="50" height="50" fill="rgb(23, 59, 36)" stroke-width="4" stroke="white" />
<rect x="0" y="50" width="50" height="50" fill="rgb(71, 43, 26)" stroke-width="4" stroke="white" />
<rect x="50" y="50" width="50" height="50" fill="rgb(48, 53, 79)" stroke-width="4" stroke="white" />
<rect x="100" y="50" width="50" height="50" fill="rgb(94, 31, 40)" stroke-width="4" stroke="white" />
<rect x="150" y="50" width="50" height="50" fill="rgb(33, 22, 165)" stroke-width="4" stroke="white" />
<rect x="200" y="50" width="50" height="50" fill="rgb(81, 28, 135)" stroke-width="4" stroke="white" />
<rect x="250" y="50" width="50" height="50" fill="rgb(28, 74, 18)" stroke-width="4" stroke="white" />
<rect x="300" y="50" width="50" height="50" fill="rgb(95, 40, 99)" stroke-width="4" stroke="white" />
<rect x="350" y="50" width="50" height="50" fill="rgb(121, 22, 29)" stroke-width="4" stroke="white" />
<rect x="400" y="50" width="50" height="50" fill="rgb(86, 61, 5)" stroke-width="4" stroke="white" />
<rect x="450" y="50" width="50" height="50" fill="rgb(122, 2, 99)" stroke-width="4" stroke="white" />
<rect x="0" y="100" width="50" height="50" fill="rgb(38, 69, 134)" stroke-width="4" stroke="white" />
<rect x="50" y="100" width="50" height="50" fill="rgb(136, 15, 66)" stroke-width="4" stroke="white" />
<rect x="100" y="100" width="50" height="50" fill="rgb(118, 63, 36)" stroke-width="4" stroke="white" />
<rect x="150" y="100" width="50" height="50" fill="rgb(104, 71, 71)" stroke-width="4" stroke="white" />
<rect x="200" y="100" width="50" height="50" fill="rgb(81, 83, 68)" stroke-width="4" stroke="white" />
<rect x="250" y="100" width="50" height="50" fill="rgb(87, 73, 117)" stroke-width="4" stroke="white" />
<rect x="300" y="100" width="50" height="50" fill="rgb(58, 63, 183)" stroke-width="4" stroke="white" />
<rect x="350" y="100" width="50" height="50" fill="rgb(41, 93, 105)" stroke-width="4" stroke="white" />
<rect x="400" y="100" width="50" height="50" fill="rgb(142, 54, 20)" stroke-width="4" stroke="white" />
<rect x="450" y="100" width="50" height="50" fill="rgb(117, 69, 99)" stroke-width="4" stroke="white" />
<rect x="0" y="150" width="50" height="50" fill="rgb(58, 100, 4)" stroke-width="4" stroke="white" />
<rect x="50" y="150" width="50" height="50" fill="rgb(165, 26, 29)" stroke-width="4" stroke="white" />
<rect x="100" y="150" width="50" height="50" fill="rgb(165, 28, 58)" stroke-width="4" stroke="white" />
<rect x="150" y="150" width="50" height="50" fill="rgb(31, 60, 248)" stroke-width="4" stroke="white" />
<rect x="200" y="150" width="50" height="50" fill="rgb(148, 64, 78)" stroke-width="4" stroke="white" />
<rect x="250" y="150" width="50" height="50" fill="rgb(48, 110, 70)" stroke-width="4" stroke="white" />
<rect x="300" y="150" width="50" height="50" fill="rgb(136, 53, 173)" stroke-width="4" stroke="white" />
<rect x="350" y="150" width="50" height="50" fill="rgb(153, 4, 192)" stroke-width="4" stroke="white" />
<rect x="400" y="150" width="50" height="50" fill="rgb(134, 17, 222)" stroke-width="4" stroke="white" />
<rect x="450" y="150" width="50" height="50" fill="rgb(55, 110, 98)" stroke-width="4" stroke="white" />
<rect x="0" y="200" width="50" height="50" fill="rgb(90, 107, 52)" stroke-width="4" stroke="white" />
<rect x="50" y="200" width="50" height="50" fill="rgb(116, 98, 59)" stroke-width="4" stroke="white" />
<rect x="100" y="200" width="50" height="50" fill="rgb(78, 103, 137)" stroke-width="4" stroke="white" />
<rect x="150" y="200" width="50" height="50" fill="rgb(172, 32, 139)" stroke-width="4" stroke="white" />
<rect x="200" y="200" width="50" height="50" fill="rgb(29, 124, 13)" stroke-width="4" stroke="white" />
<rect x="250" y="200" width="50" height="50" fill="rgb(188, 32, 98)" stroke-width="4" stroke="white" />
<rect x="300" y="200" width="50" height="50" fill="rgb(108, 87, 187)" stroke-width="4" stroke="white" />
<rect x="350" y="200" width="50" height="50" fill="rgb(114, 68, 224)" stroke-width="4" stroke="white" />
<rect x="400" y="200" width="50" height="50" fill="rgb(29, 127, 58)" stroke-width="4" stroke="white" />
<rect x="450" y="200" width="50" height="50" fill="rgb(37, 106, 197)" stroke-width="4" stroke="white" />
<rect x="0" y="250" width="50" height="50" fill="rgb(102, 92, 191)" stroke-width="4" stroke="white" />
<rect x="50" y="250" width="50" height="50" fill="rgb(194, 44, 14)" stroke-width="4" stroke="white" />
<rect x="100" y="250" width="50" height="50" fill="rgb(112, 114, 4)" stroke-width="4" stroke="white" />
<rect x="150" y="250" width="50" height="50" fill="rgb(25, 94, 243)" stroke-width="4" stroke="white" />
<rect x="200" y="250" width="50" height="50" fill="rgb(163, 79, 120)" stroke-width="4" stroke="white" />
<rect x="250" y="250" width="50" height="50" fill="rgb(2, 120, 180)" stroke-width="4" stroke="white" />
<rect x="300" y="250" width="50" height="50" fill="rgb(172, 86, 4)" stroke-width="4" stroke="white" />
<rect x="350" y="250" width="50" height="50" fill="rgb(186, 36, 183)" stroke-width="4" stroke="white" />
<rect x="400" y="250" width="50" height="50" fill="rgb(185, 77, 73)" stroke-width="4" stroke="white" />
<rect x="450" y="250" width="50" height="50" fill="rgb(155, 104, 37)" stroke-width="4" stroke="white" />
<rect x="0" y="300" width="50" height="50" fill="rgb(161, 101, 86)" stroke-width="4" stroke="white" />
<rect x="50" y="300" width="50" height="50" fill="rgb(131, 114, 135)" stroke-width="4" stroke="white" />
<rect x="100" y="300" width="50" height="50" fill="rgb(58, 137, 146)" stroke-width="4" stroke="white" />
<rect x="150" y="300" width="50" height="50" fill="rgb(225, 31, 87)" stroke-width="4" stroke="white" />
<rect x="200" y="300" width="50" height="50" fill="rgb(162, 106, 122)" stroke-width="4" stroke="white" />
<rect x="250" y="300" width="50" height="50" fill="rgb(16, 121, 242)" stroke-width="4" stroke="white" />
<rect x="300" y="300" width="50" height="50" fill="rgb(211, 85, 4)" stroke-width="4" stroke="white" />
<rect x="350" y="300" width="50" height="50" fill="rgb(174, 94, 186)" stroke-width="4" stroke="white" />
<rect x="400" y="300" width="50" height="50" fill="rgb(99, 145, 56)" stroke-width="4" stroke="white" />
<rect x="450" y="300" width="50" height="50" fill="rgb(143, 128, 113)" stroke-width="4" stroke="white" />
<rect x="0" y="350" width="50" height="50" fill="rgb(118, 143, 7)" stroke-width="4" stroke="white" />
<rect x="50" y="350" width="50" height="50" fill="rgb(203, 82, 151)" stroke-width="4" stroke="white" />
<rect x="100" y="350" width="50" height="50" fill="rgb(234, 59, 63)" stroke-width="4" stroke="white" />
<rect x="150" y="350" width="50" height="50" fill="rgb(114, 140, 131)" stroke-width="4" stroke="white" />
<rect x="200" y="350" width="50" height="50" fill="rgb(38, 157, 108)" stroke-width="4" stroke="white" />
<rect x="250" y="350" width="50" height="50" fill="rgb(154, 133, 56)" stroke-width="4" stroke="white" />
<rect x="300" y="350" width="50" height="50" fill="rgb(246, 0, 147)" stroke-width="4" stroke="white" />
<rect x="350" y="350" width="50" height="50" fill="rgb(242, 62, 18)" stroke-width="4" stroke="white" />
<rect x="400" y="350" width="50" height="50" fill="rgb(157, 106, 234)" stroke-width="4" stroke="white" />
<rect x="450" y="350" width="50" height="50" fill="rgb(159, 123, 184)" stroke-width="4" stroke="white" />
<rect x="0" y="400" width="50" height="50" fill="rgb(204, 64, 247)" stroke-width="4" stroke="white" />
<rect x="50" y="400" width="50" height="50" fill="rgb(174, 134, 16)" stroke-width="4" stroke="white" />
<rect x="100" y="400" width="50" height="50" fill="rgb(198, 118, 73)" stroke-width="4" stroke="white" />
<rect x="150" y="400" width="50" height="50" fill="rgb(175, 132, 91)" stroke-width="4" stroke="white" />
<rect x="200" y="400" width="50" height="50" fill="rgb(150, 144, 97)" stroke-width="4" stroke="white" />
<rect x="250" y="400" width="50" height="50" fill="rgb(116, 142, 205)" stroke-width="4" stroke="white" />
<rect x="300" y="400" width="50" height="50" fill="rgb(85, 167, 42)" stroke-width="4" stroke="white" />
<rect x="350" y="400" width="50" height="50" fill="rgb(244, 38, 215)" stroke-width="4" stroke="white" />
<rect x="400" y="400" width="50" height="50" fill="rgb(202, 98, 247)" stroke-width="4" stroke="white" />
<rect x="450" y="400" width="50" height="50" fill="rgb(38, 166, 204)" stroke-width="4" stroke="white" />
<rect x="0" y="450" width="50" height="50" fill="rgb(229, 106, 138)" stroke-width="4" stroke="white" />
<rect x="50" y="450" width="50" height="50" fill="rgb(106, 166, 139)" stroke-width="4" stroke="white" />
<rect x="100" y="450" width="50" height="50" fill="rgb(107, 148, 245)" stroke-width="4" stroke="white" />
<rect x="150" y="450" width="50" height="50" fill="rgb(238, 82, 203)" stroke-width="4" stroke="white" />
<rect x="200" y="450" width="50" height="50" fill="rgb(251, 84, 144)" stroke-width="4" stroke="white" />
<rect x="250" y="450" width="50" height="50" fill="rgb(129, 168, 111)" stroke-width="4" stroke="white" />
<rect x="300" y="450" width="50" height="50" fill="rgb(222, 125, 123)" stroke-width="4" stroke="white" />
<rect x="350" y="450" width="50" height="50" fill="rgb(38, 182, 164)" stroke-width="4" stroke="white" />
<rect x="400" y="450" width="50" height="50" fill="rgb(200, 144, 137)" stroke-width="4" stroke="white" />
<rect x="450" y="450" width="50" height="50" fill="rgb(130, 167, 193)" stroke-width="4" stroke="white" />
<rect x="0" y="500" width="50" height="50" fill="rgb(82, 172, 237)" stroke-width="4" stroke="white" />
<rect x="50" y="500" width="50" height="50" fill="rgb(179, 142, 239)" stroke-width="4" stroke="white" />
<rect x="100" y="500" width="50" height="50" fill="rgb(254, 114, 106)" stroke-width="4" stroke="white" />
<rect x="150" y="500" width="50" height="50" fill="rgb(249, 123, 72)" stroke-width="4" stroke="white" />
<rect x="200" y="500" width="50" height="50" fill="rgb(219, 124, 240)" stroke-width="4" stroke="white" />
<rect x="250" y="500" width="50" height="50" fill="rgb(244, 134, 22)" stroke-width="4" stroke="white" />
<rect x="300" y="500" width="50" height="50" fill="rgb(176, 173, 32)" stroke-width="4" stroke="white" />
<rect x="350" y="500" width="50" height="50" fill="rgb(148, 183, 11)" stroke-width="4" stroke="white" />
<rect x="400" y="500" width="50" height="50" fill="rgb(184, 161, 180)" stroke-width="4" stroke="white" />
<rect x="450" y="500" width="50" height="50" fill="rgb(19, 204, 127)" stroke-width="4" stroke="white" />
<rect x="0" y="550" width="50" height="50" fill="rgb(252, 121, 203)" stroke-width="4" stroke="white" />
<rect x="50" y="550" width="50" height="50" fill="rgb(179, 174, 148)" stroke-width="4" stroke="white" />
<rect x="100" y="550" width="50" height="50" fill="rgb(80, 207, 16)" stroke-width="4" stroke="white" />
<rect x="150" y="550" width="50" height="50" fill="rgb(156, 189, 89)" stroke-width="4" stroke="white" />
<rect x="200" y="550" width="50" height="50" fill="rgb(239, 143, 200)" stroke-width="4" stroke="white" />
<rect x="250" y="550" width="50" height="50" fill="rgb(235, 165, 54)" stroke-width="4" stroke="white" />
<rect x="300" y="550" width="50" height="50" fill="rgb(53, 203, 217)" stroke-width="4" stroke="white" />
<rect x="350" y="550" width="50" height="50" fill="rgb(155, 192, 181)" stroke-width="4" stroke="white" />
<rect x="400" y="550" width="50" height="50" fill="rgb(113, 210, 115)" stroke-width="4" stroke="white" />
<rect x="450" y="550" width="50" height="50" fill="rgb(104, 214, 79)" stroke-width="4" stroke="white" />
<rect x="0" y="600" width="50" height="50" fill="rgb(202, 187, 96)" stroke-width="4" stroke="white" />
<rect x="50" y="600" width="50" height="50" fill="rgb(252, 161, 115)" stroke-width="4" stroke="white" />
<rect x="100" y="600" width="50" height="50" fill="rgb(226, 177, 111)" stroke-width="4" stroke="white" />
<rect x="150" y="600" width="50" height="50" fill="rgb(237, 154, 242)" stroke-width="4" stroke="white" />
<rect x="200" y="600" width="50" height="50" fill="rgb(45, 221, 175)" stroke-width="4" stroke="white" />
<rect x="250" y="600" width="50" height="50" fill="rgb(236, 177, 145)" stroke-width="4" stroke="white" />
<rect x="300" y="600" width="50" height="50" fill="rgb(145, 213, 156)" stroke-width="4" stroke="white" />
<rect x="350" y="600" width="50" height="50" fill="rgb(135, 207, 248)" stroke-width="4" stroke="white" />
<rect x="400" y="600" width="50" height="50" fill="rgb(189, 206, 133)" stroke-width="4" stroke="white" />
<rect x="450" y="600" width="50" height="50" fill="rgb(160, 219, 88)" stroke-width="4" stroke="white" />
<rect x="0" y="650" width="50" height="50" fill="rgb(192, 194, 248)" stroke-width="4" stroke="white" />
<rect x="50" y="650" width="50" height="50" fill="rgb(231, 181, 246)" stroke-width="4" stroke="white" />
<rect x="100" y="650" width="50" height="50" fill="rgb(249, 179, 213)" stroke-width="4" stroke="white" />
<rect x="150" y="650" width="50" height="50" fill="rgb(237, 198, 67)" stroke-width="4" stroke="white" />
<rect x="200" y="650" width="50" height="50" fill="rgb(66, 241, 120)" stroke-width="4" stroke="white" />
<rect x="250" y="650" width="50" height="50" fill="rgb(106, 250, 93)" stroke-width="4" stroke="white" />
<rect x="300" y="650" width="50" height="50" fill="rgb(252, 203, 198)" stroke-width="4" stroke="white" />
<rect x="350" y="650" width="50" height="50" fill="rgb(140, 240, 209)" stroke-width="4" stroke="white" />
<rect x="400" y="650" width="50" height="50" fill="rgb(150, 235, 249)" stroke-width="4" stroke="white" />
<rect x="450" y="650" width="50" height="50" fill="rgb(233, 212, 234)" stroke-width="4" stroke="white" />
<rect x="0" y="700" width="50" height="50" fill="rgb(163, 249, 89)" stroke-width="4" stroke="white" />
<rect x="50" y="700" width="50" height="50" fill="rgb(194, 242, 51)" stroke-width="4" stroke="white" />
<rect x="100" y="700" width="50" height="50" fill="rgb(249, 217, 164)" stroke-width="4" stroke="white" />
<rect x="150" y="700" width="50" height="50" fill="rgb(129, 252, 174)" stroke-width="4" stroke="white" />
<rect x="200" y="700" width="50" height="50" fill="rgb(209, 235, 188)" stroke-width="4" stroke="white" />
<rect x="250" y="700" width="50" height="50" fill="rgb(253, 232, 48)" stroke-width="4" stroke="white" />
<rect x="300" y="700" width="50" height="50" fill="rgb(242, 239, 111)" stroke-width="4" stroke="white" />
<rect x="350" y="700" width="50" height="50" fill="rgb(194, 246, 229)" stroke-width="4" stroke="white" />
<rect x="400" y="700" width="50" height="50" fill="rgb(200, 253, 166)" stroke-width="4" stroke="white" />
<rect x="450" y="700" width="50" height="50" fill="rgb(250, 240, 221)" stroke-width="4" stroke="white" />
</svg>
